<?xml version="1.0" standalone="no"?>
<!DOCTYPE svg PUBLIC "-//W3C//DTD SVG 20010904//EN"
 "http://www.w3.org/TR/2001/REC-SVG-20010904/DTD/svg10.dtd">
<svg version="1.0" xmlns="http://www.w3.org/2000/svg"
 width="902.000000pt" height="868.000000pt" viewBox="0 0 902.000000 868.000000"
 preserveAspectRatio="xMidYMid meet">

<g transform="translate(0.000000,868.000000) scale(0.100000,-0.100000)"
fill="#ffffff" stroke="none">
<path d="M0 4340 l0 -4340 4510 0 4510 0 0 4340 0 4340 -4510 0 -4510 0 0
-4340z m5150 3850 c392 -21 569 -52 970 -172 138 -40 460 -166 540 -211 25
-13 99 -52 164 -87 129 -67 369 -223 506 -329 406 -313 753 -700 1003 -1121
108 -180 239 -439 277 -545 96 -265 126 -357 155 -470 100 -391 138 -679 138
-1035 -1 -347 -34 -613 -118 -954 -119 -484 -297 -881 -583 -1301 -154 -226
-288 -386 -537 -640 -176 -179 -509 -432 -760 -577 -488 -283 -928 -432 -1520
-514 -160 -23 -602 -26 -765 -6 -225 27 -509 81 -674 129 -149 42 -444 156
-608 234 -155 73 -205 101 -403 224 -452 279 -878 691 -1187 1145 -499 734
-743 1587 -699 2447 35 697 235 1332 608 1935 136 221 290 416 502 638 421
441 940 780 1516 991 304 111 707 196 1040 218 183 12 237 12 435 1z"/>
<path d="M4625 7875 c-562 -57 -1113 -253 -1600 -569 -238 -154 -389 -278
-615 -505 -320 -321 -557 -665 -735 -1066 -137 -307 -235 -642 -280 -950 -63
-433 -54 -862 26 -1290 62 -335 230 -780 414 -1101 314 -549 784 -1030 1325
-1359 113 -69 372 -199 508 -256 264 -110 635 -203 926 -234 351 -36 605 -29
939 26 226 37 325 62 547 137 206 70 257 91 439 181 890 442 1564 1213 1884
2157 195 573 242 1172 141 1779 -64 381 -156 674 -318 1010 -256 529 -641 989
-1128 1351 -127 94 -254 174 -440 277 -348 193 -740 320 -1223 398 -167 27
-612 35 -810 14z m-710 -1635 c66 -11 156 -32 200 -46 102 -33 282 -117 359
-168 141 -92 281 -240 380 -400 94 -150 188 -425 219 -643 l13 -88 57 110
c107 209 275 403 451 520 216 144 518 219 787 195 67 -5 125 -13 130 -16 5 -3
9 -36 9 -73 0 -237 -121 -543 -300 -761 -80 -96 -271 -240 -416 -313 -168 -84
-410 -150 -596 -163 l-98 -7 0 -388 0 -388 58 -6 c202 -21 512 -118 512 -159
0 -34 -135 -133 -431 -316 -116 -72 -221 -154 -339 -266 -30 -29 -114 -101
-186 -161 -71 -59 -150 -125 -175 -146 -41 -36 -42 -37 -9 -19 120 68 299 166
385 212 119 63 167 95 260 170 141 115 557 332 662 346 47 6 54 4 77 -19 17
-17 26 -37 26 -59 0 -17 5 -69 12 -114 23 -161 -35 -372 -151 -544 -86 -128
-134 -185 -251 -294 -417 -388 -1031 -537 -1413 -345 -155 79 -228 148 -288
273 -58 123 -72 190 -66 321 9 195 83 384 219 560 123 159 362 352 526 427 96
44 279 108 307 108 l25 0 0 534 0 534 -67 7 c-330 31 -626 160 -854 371 -288
265 -477 685 -496 1106 l-6 127 44 4 c86 9 306 -3 424 -23z"/>
<path d="M3660 6057 c0 -27 31 -191 44 -237 121 -407 377 -721 698 -856 138
-59 327 -104 432 -104 l48 0 -7 58 c-10 80 -42 233 -66 317 -25 86 -137 312
-188 380 -188 249 -513 414 -888 450 -61 6 -73 5 -73 -8z"/>
<path d="M6105 5509 c-85 -12 -226 -54 -288 -85 -129 -66 -294 -206 -375 -319
-66 -92 -169 -278 -213 -385 l-48 -115 34 -3 c52 -5 208 25 310 59 115 38 303
131 374 185 186 142 329 350 380 553 31 126 33 121 -46 120 -38 -1 -95 -5
-128 -10z"/>
</g>
</svg>
